<?xml version="1.0" encoding="utf-8"?>
<!-- Generator: Adobe Illustrator 27.7.0, SVG Export Plug-In . SVG Version: 6.00 Build 0)  -->
<svg version="1.1" id="Capa_1" xmlns="http://www.w3.org/2000/svg" xmlns:xlink="http://www.w3.org/1999/xlink" x="0px" y="0px"
	 viewBox="0 0 1920 1080" style="enable-background:new 0 0 1920 1080;" xml:space="preserve">
<style type="text/css">
	.st0{fill:#002261;}
	.st1{opacity:0.95;}
</style>
<g>
	<g>
		<path class="st0" d="M738.78,511.21c42.74-21.17,84.38-24.21,93.01-6.79c4.46,9.01-0.78,21.72-12.79,34.83
			c18.28-15.67,27.52-32.02,22.18-42.79c-8.23-16.61-47.93-13.71-88.69,6.47c-7.63,3.78-14.77,7.9-21.26,12.21
			C733.7,513.8,736.2,512.49,738.78,511.21z"/>
		<path class="st0" d="M763.76,569.98c-43.22,20.18-84.92,22.25-93.14,4.63c-4.25-9.11,1.28-21.7,13.59-34.52
			c-18.64,15.24-28.25,31.37-23.16,42.27c7.84,16.8,47.61,14.82,88.81-4.42c7.72-3.6,14.95-7.56,21.54-11.71
			C768.9,567.51,766.36,568.76,763.76,569.98z"/>
		<g>
			<path class="st0" d="M720.71,532.35c9.59-46.72,32.81-81.43,51.85-77.52c9.84,2.02,16.65,13.97,19.6,31.5
				c-1.11-24.05-8.32-41.39-20.1-43.81c-18.16-3.73-40.29,29.36-49.44,73.91c-1.71,8.35-2.85,16.5-3.45,24.27
				C719.62,537.95,720.14,535.16,720.71,532.35z"/>
			<path class="st0" d="M782.41,548.79c-10.68,46.49-34.69,80.65-53.63,76.3c-9.8-2.25-16.32-14.35-18.86-31.94
				c0.55,24.07,7.35,41.57,19.08,44.26c18.06,4.15,40.96-28.42,51.14-72.75c1.91-8.31,3.23-16.43,4-24.19
				C783.62,543.22,783.05,545.99,782.41,548.79z"/>
		</g>
		<g>
			<path class="st0" d="M732.45,564.93c-39.96-26.05-63.75-60.36-53.14-76.65c5.49-8.42,19.1-10.37,36.49-6.69
				c-22.78-7.77-41.56-7.42-48.13,2.66c-10.12,15.53,12.56,48.24,50.66,73.08c7.14,4.65,14.31,8.7,21.32,12.1
				C737.26,567.99,734.85,566.5,732.45,564.93z"/>
			<path class="st0" d="M770.34,513.55c39.35,26.96,62.34,61.82,51.35,77.86c-5.68,8.29-19.34,9.93-36.64,5.84
				c22.6,8.31,41.38,8.39,48.18-1.54c10.48-15.29-11.44-48.53-48.96-74.24c-7.03-4.81-14.1-9.02-21.03-12.59
				C765.61,510.37,767.98,511.93,770.34,513.55z"/>
		</g>
	</g>
	<g class="st1">
		<path class="st0" d="M847.15,530.47c0.5-1.49,0.99-3.08,1.47-4.78c0.48-1.7,0.98-3.6,1.5-5.68l0.71,0.37
			c0.5,3.18,1.61,5.57,3.34,7.18c1.73,1.61,4.06,2.41,6.96,2.41c2.11,0,3.83-0.56,5.17-1.69c1.34-1.13,2.01-2.57,2.01-4.35
			c0-1.9-1.75-4.34-5.26-7.34c-0.33-0.27-0.57-0.46-0.71-0.59c-3.94-3.32-6.47-5.89-7.58-7.69c-1.11-1.81-1.67-3.76-1.67-5.86
			c0-3.86,1.38-7.04,4.13-9.55c2.76-2.51,6.32-3.76,10.69-3.76c2.35,0,4.61,0.25,6.78,0.76c2.17,0.51,4.24,1.27,6.22,2.27
			c-0.54,1.3-1.03,2.64-1.48,4.01c-0.45,1.37-0.89,2.82-1.3,4.35l-0.74-0.18c-0.54-2.27-1.56-4.02-3.08-5.25
			c-1.52-1.23-3.41-1.84-5.68-1.84c-1.98,0-3.55,0.51-4.72,1.52c-1.17,1.01-1.75,2.36-1.75,4.06c0,1.98,2.08,4.68,6.25,8.11
			c0.33,0.27,0.6,0.49,0.81,0.65c3.28,2.72,5.44,4.93,6.48,6.62c1.04,1.69,1.56,3.54,1.56,5.54c0,4.4-1.49,7.88-4.47,10.46
			c-2.98,2.58-7.05,3.87-12.21,3.87c-2.43,0-4.78-0.3-7.02-0.91C851.31,532.56,849.17,531.66,847.15,530.47z"/>
		<path class="st0" d="M905.02,533.25c0-0.16,0.01-0.36,0.02-0.57s0.02-0.53,0.02-0.94c0-1.2-0.13-2.99-0.4-5.38
			c-0.08-0.64-0.13-1.1-0.15-1.39l-0.43-4.05c-1.57-0.15-2.97-0.25-4.21-0.31c-1.24-0.06-2.31-0.1-3.22-0.1
			c-0.6,0-1.42,0.03-2.48,0.1c-1.05,0.06-2.32,0.16-3.81,0.31l-2.35,4.12l-0.31,0.56c-1.73,2.99-3.06,5.55-3.99,7.67
			c-0.74-0.08-1.41-0.15-2.01-0.18c-0.6-0.04-1.09-0.06-1.48-0.06c-0.48,0-1.02,0.02-1.64,0.06c-0.62,0.04-1.29,0.1-2.01,0.18
			c4.62-6.95,9.19-14.05,13.7-21.29c4.51-7.24,8.98-14.66,13.42-22.25c0.6,0.08,1.17,0.15,1.72,0.19c0.54,0.04,1.01,0.06,1.41,0.06
			c0.33,0,0.73-0.02,1.19-0.06c0.46-0.04,0.99-0.1,1.59-0.19l2.2,14.76c0.99,6.54,1.95,12.24,2.89,17.1
			c0.94,4.86,1.83,8.75,2.68,11.68c-1.3-0.18-2.49-0.32-3.57-0.42c-1.08-0.09-2.04-0.14-2.86-0.14c-0.68,0-1.51,0.05-2.49,0.14
			C907.43,532.92,906.3,533.06,905.02,533.25z M892.89,516.2c1.03,0.06,1.97,0.11,2.83,0.14c0.86,0.03,1.62,0.04,2.3,0.04
			c0.72,0,1.54-0.01,2.45-0.04c0.91-0.03,1.91-0.08,3-0.14c-0.21-2.21-0.45-4.49-0.74-6.84c-0.29-2.35-0.63-4.79-1.02-7.3
			c-1.46,2.17-2.91,4.4-4.35,6.7C895.93,511.06,894.44,513.54,892.89,516.2z"/>
		<path class="st0" d="M920.81,533.25c1.94-7.41,3.62-14.77,5.06-22.08c1.43-7.31,2.58-14.38,3.42-21.21c1.03,0.1,2,0.18,2.91,0.23
			c0.91,0.05,1.8,0.08,2.66,0.08c1.28,0,3.1-0.07,5.48-0.22c2.37-0.14,4.09-0.22,5.17-0.22c3.8,0,6.73,0.8,8.81,2.4
			c2.07,1.6,3.11,3.84,3.11,6.73c0,3.18-1.04,5.79-3.13,7.83c-2.08,2.04-5.03,3.34-8.85,3.9V511c2.78,0.23,4.96,1.14,6.53,2.76
			c1.57,1.61,2.35,3.73,2.35,6.37c0,4.37-1.5,7.66-4.5,9.84c-3,2.19-7.49,3.28-13.45,3.28c-1.59,0-3.54-0.05-5.85-0.16
			c-2.31-0.1-3.83-0.15-4.55-0.15c-0.66,0-1.41,0.03-2.26,0.08C922.87,533.07,921.9,533.15,920.81,533.25z M932.32,529.04
			c0.39,0.04,0.75,0.07,1.08,0.08c0.33,0.01,0.66,0.02,0.99,0.02c3.09,0,5.45-0.9,7.06-2.69c1.61-1.8,2.41-4.42,2.41-7.89
			c0-2.08-0.6-3.63-1.8-4.64c-1.2-1.01-3.03-1.52-5.51-1.52h-0.96l-1.52,7.49c-0.41,2-0.77,3.81-1.08,5.42
			C932.69,526.9,932.46,528.15,932.32,529.04z M936.37,508.58c0.16,0.02,0.35,0.04,0.57,0.05s0.53,0.02,0.95,0.02
			c2.95,0,5.22-0.76,6.81-2.29c1.59-1.53,2.38-3.69,2.38-6.5c0-2-0.48-3.5-1.42-4.49c-0.95-0.99-2.37-1.48-4.27-1.48
			c-0.43,0-0.81,0.01-1.13,0.02c-0.32,0.01-0.63,0.02-0.95,0.04c-0.47,1.61-0.98,3.88-1.52,6.81c-0.06,0.35-0.11,0.62-0.15,0.81
			L936.37,508.58z"/>
		<path class="st0" d="M959.4,533.25c1.94-7.41,3.62-14.77,5.06-22.08c1.43-7.31,2.58-14.38,3.42-21.21c1.03,0.1,2,0.18,2.91,0.23
			c0.91,0.05,1.8,0.08,2.66,0.08c1.28,0,3.1-0.07,5.48-0.22c2.37-0.14,4.09-0.22,5.17-0.22c3.8,0,6.73,0.8,8.81,2.4
			s3.11,3.84,3.11,6.73c0,3.18-1.04,5.79-3.13,7.83c-2.08,2.04-5.03,3.34-8.85,3.9V511c2.78,0.23,4.96,1.14,6.53,2.76
			c1.57,1.61,2.35,3.73,2.35,6.37c0,4.37-1.5,7.66-4.5,9.84c-3,2.19-7.49,3.28-13.45,3.28c-1.59,0-3.54-0.05-5.85-0.16
			c-2.31-0.1-3.83-0.15-4.55-0.15c-0.66,0-1.41,0.03-2.26,0.08C961.46,533.07,960.49,533.15,959.4,533.25z M970.91,529.04
			c0.39,0.04,0.75,0.07,1.08,0.08s0.66,0.02,0.99,0.02c3.09,0,5.45-0.9,7.06-2.69c1.61-1.8,2.41-4.42,2.41-7.89
			c0-2.08-0.6-3.63-1.8-4.64c-1.2-1.01-3.03-1.52-5.51-1.52h-0.96l-1.52,7.49c-0.41,2-0.77,3.81-1.08,5.42
			C971.28,526.9,971.06,528.15,970.91,529.04z M974.97,508.58c0.16,0.02,0.35,0.04,0.57,0.05s0.53,0.02,0.95,0.02
			c2.95,0,5.22-0.76,6.81-2.29c1.59-1.53,2.38-3.69,2.38-6.5c0-2-0.48-3.5-1.42-4.49c-0.95-0.99-2.37-1.48-4.27-1.48
			c-0.43,0-0.81,0.01-1.13,0.02c-0.32,0.01-0.63,0.02-0.95,0.04c-0.47,1.61-0.98,3.88-1.52,6.81c-0.06,0.35-0.11,0.62-0.15,0.81
			L974.97,508.58z"/>
		<path class="st0" d="M1021.88,533.25c0-0.16,0.01-0.36,0.02-0.57s0.02-0.53,0.02-0.94c0-1.2-0.13-2.99-0.4-5.38
			c-0.08-0.64-0.13-1.1-0.15-1.39l-0.43-4.05c-1.57-0.15-2.97-0.25-4.21-0.31c-1.24-0.06-2.31-0.1-3.22-0.1
			c-0.6,0-1.42,0.03-2.48,0.1c-1.05,0.06-2.32,0.16-3.81,0.31l-2.35,4.12l-0.31,0.56c-1.73,2.99-3.06,5.55-3.99,7.67
			c-0.74-0.08-1.41-0.15-2.01-0.18c-0.6-0.04-1.09-0.06-1.48-0.06c-0.48,0-1.02,0.02-1.64,0.06c-0.62,0.04-1.29,0.1-2.01,0.18
			c4.62-6.95,9.19-14.05,13.7-21.29s8.98-14.66,13.42-22.25c0.6,0.08,1.17,0.15,1.72,0.19c0.54,0.04,1.01,0.06,1.41,0.06
			c0.33,0,0.73-0.02,1.19-0.06c0.46-0.04,0.99-0.1,1.59-0.19l2.2,14.76c0.99,6.54,1.95,12.24,2.89,17.1
			c0.94,4.86,1.83,8.75,2.68,11.68c-1.3-0.18-2.49-0.32-3.57-0.42c-1.08-0.09-2.04-0.14-2.86-0.14c-0.68,0-1.51,0.05-2.49,0.14
			C1024.29,532.92,1023.16,533.06,1021.88,533.25z M1009.75,516.2c1.03,0.06,1.97,0.11,2.83,0.14c0.86,0.03,1.62,0.04,2.3,0.04
			c0.72,0,1.54-0.01,2.45-0.04c0.91-0.03,1.91-0.08,3-0.14c-0.21-2.21-0.45-4.49-0.74-6.84c-0.29-2.35-0.63-4.79-1.02-7.3
			c-1.46,2.17-2.91,4.4-4.35,6.7C1012.79,511.06,1011.3,513.54,1009.75,516.2z"/>
		<path class="st0" d="M1067.57,529.19c0.76-2.5,1.41-5.04,1.95-7.64c0.54-2.6,0.96-5.24,1.27-7.92c1.46,0.16,2.59,0.28,3.37,0.36
			c0.78,0.07,1.41,0.12,1.89,0.14c0.66,0,1.46-0.04,2.4-0.13c0.94-0.09,2.07-0.21,3.39-0.36c-0.93,2.84-1.73,5.78-2.41,8.82
			c-0.68,3.04-1.26,6.2-1.73,9.47c-3.11,0.74-5.97,1.29-8.57,1.64c-2.6,0.35-5.06,0.53-7.4,0.53c-7.28,0-12.87-1.68-16.77-5.04
			c-3.9-3.36-5.85-8.17-5.85-14.42c0-7.51,2.63-13.64,7.89-18.4c5.26-4.76,12.12-7.13,20.58-7.13c3.4,0,6.62,0.32,9.64,0.96
			c3.02,0.64,5.76,1.58,8.22,2.82c-0.64,1.57-1.3,3.14-1.98,4.71c-0.68,1.57-1.41,3.18-2.2,4.83l-0.96-0.28
			c-0.45-2.89-1.76-5.07-3.92-6.56c-2.16-1.48-5.09-2.23-8.8-2.23c-2.71,0-5.08,0.52-7.12,1.55c-2.04,1.03-3.74,2.58-5.11,4.64
			c-1.46,2.23-2.64,4.86-3.51,7.91c-0.88,3.04-1.32,5.97-1.32,8.77c0,4.35,1.07,7.75,3.2,10.18c2.13,2.44,5.1,3.65,8.9,3.65
			c0.87,0,1.69-0.07,2.48-0.2C1065.87,529.7,1066.7,529.49,1067.57,529.19z"/>
		<path class="st0" d="M848.73,590.76c2.56-9.72,4.63-18.45,6.2-26.2c1.58-7.75,2.47-13.45,2.68-17.1c0.97,0.08,1.96,0.15,2.97,0.18
			c1.01,0.04,2.08,0.06,3.22,0.06c1.28,0,2.99-0.04,5.12-0.12c2.14-0.08,3.63-0.12,4.47-0.12c4.83,0,8.42,0.86,10.77,2.57
			c2.35,1.71,3.53,4.32,3.53,7.83c0,3.53-1.07,6.29-3.2,8.3c-2.13,2-5.25,3.15-9.33,3.43c1.4,3.65,2.86,7.24,4.36,10.75
			c1.51,3.52,3.07,6.99,4.7,10.41c-0.18-0.02-0.44-0.05-0.77-0.09c-3.12-0.31-5.14-0.46-6.07-0.46c-0.68,0-1.46,0.04-2.32,0.11
			c-0.87,0.07-2.06,0.22-3.59,0.45c-0.89-3.65-1.85-7.13-2.89-10.43c-1.04-3.3-2.17-6.48-3.39-9.53h-1.7l-1.46,7.55
			c-0.21,0.99-0.47,2.58-0.79,4.77c-0.32,2.19-0.66,4.74-1.01,7.65c-1.18-0.15-2.27-0.25-3.28-0.32c-1.01-0.07-1.92-0.11-2.72-0.11
			c-0.72,0-2.44,0.13-5.14,0.4L848.73,590.76z M864.08,567.12c0.23,0.02,0.49,0.04,0.77,0.04c0.29,0.01,0.72,0.02,1.3,0.02
			c3.57,0,6.32-0.8,8.26-2.41c1.94-1.61,2.91-3.91,2.91-6.9c0-2.15-0.6-3.72-1.79-4.72c-1.2-1-3.08-1.5-5.63-1.5
			c-0.33,0-0.68,0.01-1.04,0.02s-0.76,0.03-1.19,0.05c-0.18,0.72-0.39,1.53-0.62,2.41s-0.46,1.89-0.71,3L864.08,567.12z"/>
		<path class="st0" d="M912.2,590.76c0-0.16,0.01-0.36,0.02-0.57c0.01-0.22,0.02-0.53,0.02-0.94c0-1.2-0.13-2.99-0.4-5.38
			c-0.08-0.64-0.13-1.1-0.15-1.39l-0.43-4.05c-1.57-0.15-2.97-0.25-4.21-0.31c-1.24-0.06-2.31-0.1-3.22-0.1
			c-0.6,0-1.42,0.03-2.48,0.1c-1.05,0.06-2.32,0.16-3.81,0.31l-2.35,4.12l-0.31,0.56c-1.73,2.99-3.06,5.55-3.99,7.67
			c-0.74-0.08-1.41-0.15-2.01-0.18c-0.6-0.04-1.09-0.06-1.48-0.06c-0.48,0-1.02,0.02-1.64,0.06c-0.62,0.04-1.29,0.1-2.01,0.18
			c4.62-6.95,9.19-14.05,13.7-21.29c4.51-7.24,8.98-14.66,13.42-22.25c0.6,0.08,1.17,0.15,1.72,0.19c0.54,0.04,1.01,0.06,1.41,0.06
			c0.33,0,0.73-0.02,1.19-0.06c0.46-0.04,0.99-0.1,1.59-0.19l2.2,14.76c0.99,6.54,1.95,12.24,2.89,17.1
			c0.94,4.86,1.83,8.75,2.68,11.68c-1.3-0.18-2.49-0.32-3.57-0.42s-2.04-0.14-2.86-0.14c-0.68,0-1.51,0.05-2.49,0.14
			C914.61,590.44,913.48,590.58,912.2,590.76z M900.07,573.71c1.03,0.06,1.97,0.11,2.83,0.14c0.86,0.03,1.62,0.04,2.3,0.04
			c0.72,0,1.54-0.01,2.45-0.04c0.91-0.03,1.91-0.08,3-0.14c-0.21-2.21-0.45-4.49-0.74-6.84c-0.29-2.35-0.63-4.79-1.02-7.3
			c-1.46,2.17-2.91,4.4-4.35,6.7C903.11,568.57,901.62,571.05,900.07,573.71z"/>
		<path class="st0" d="M927.52,590.76c2.13-7.74,3.93-15.26,5.4-22.58c1.47-7.32,2.59-14.22,3.36-20.72
			c1.07,0.12,1.98,0.21,2.72,0.25c0.74,0.04,1.41,0.06,2.01,0.06c0.93,0,2.7-0.05,5.32-0.15s4.78-0.16,6.47-0.16
			c3.34,0,6.07,0.2,8.17,0.6c2.11,0.4,3.9,1.05,5.38,1.94c2.41,1.4,4.3,3.34,5.65,5.8c1.35,2.46,2.03,5.2,2.03,8.22
			c0,8.5-2.6,15.09-7.81,19.78c-5.21,4.68-12.58,7.02-22.11,7.02c-1.65,0-3.71-0.08-6.17-0.25c-2.46-0.17-4.1-0.25-4.9-0.25
			c-0.48,0-1.07,0.03-1.78,0.08C930.54,590.46,929.3,590.58,927.52,590.76z M939.62,586.34c0.95,0.16,1.81,0.29,2.58,0.37
			c0.77,0.08,1.48,0.12,2.12,0.12c5.55,0,10.05-2.02,13.51-6.05c3.46-4.03,5.18-9.26,5.18-15.68c0-4.48-1.08-7.86-3.25-10.15
			c-2.17-2.29-5.37-3.43-9.62-3.43c-0.54,0-1.09,0.01-1.66,0.04c-0.57,0.03-1.16,0.09-1.78,0.17c-1.67,6.09-3.09,12-4.27,17.73
			S940.32,580.83,939.62,586.34z"/>
		<path class="st0" d="M996.75,547.47c-2.21,7.66-4.05,15.13-5.53,22.44c-1.47,7.3-2.54,14.26-3.2,20.86
			c-1.2-0.15-2.31-0.25-3.34-0.32c-1.03-0.07-1.96-0.11-2.79-0.11c-0.66,0-1.42,0.03-2.29,0.09c-0.87,0.06-1.99,0.18-3.37,0.34
			c2.35-8.63,4.29-16.72,5.82-24.26c1.53-7.55,2.53-13.89,3-19.03c1.14,0.13,2.17,0.24,3.1,0.33c0.93,0.09,1.67,0.13,2.23,0.13
			c0.99,0,2.03-0.04,3.11-0.12S995.66,547.61,996.75,547.47z"/>
		<path class="st0" d="M1020.15,591.54c-6.67,0-11.9-1.7-15.71-5.11c-3.81-3.41-5.71-8.07-5.71-13.99c0-3.71,0.76-7.29,2.27-10.72
			c1.52-3.44,3.64-6.37,6.36-8.81c2.37-2.11,5.09-3.7,8.16-4.78c3.06-1.08,6.43-1.62,10.1-1.62c7.06,0,12.43,1.61,16.12,4.83
			c3.69,3.22,5.54,7.91,5.54,14.08c0,7.63-2.52,13.9-7.55,18.78C1034.71,589.09,1028.18,591.54,1020.15,591.54z M1025.29,550.78
			c-4.4,0-7.99,2.16-10.77,6.47c-2.78,4.31-4.18,9.9-4.18,16.77c0,4.35,0.88,7.65,2.64,9.89c1.76,2.24,4.37,3.36,7.81,3.36
			c4.54,0,8.22-2.12,11.03-6.36c2.82-4.24,4.23-9.79,4.23-16.64c0-4.44-0.91-7.79-2.72-10.07
			C1031.52,551.92,1028.84,550.78,1025.29,550.78z"/>
		<path class="st0" d="M1069.2,547.5c-2.12,7.78-3.89,15.01-5.29,21.68c-1.4,6.67-2.31,12.18-2.72,16.51
			c2.17-0.06,4.5-0.17,7.01-0.32c2.51-0.16,5.2-0.37,8.06-0.63c-0.37,1.07-0.66,2.1-0.87,3.09c-0.21,0.99-0.35,1.97-0.43,2.94
			c-2.54-0.08-5.08-0.15-7.63-0.18c-2.55-0.04-5.13-0.06-7.75-0.06c-2.04,0-3.94,0.02-5.68,0.06c-1.74,0.04-3.42,0.1-5.03,0.18
			c2.56-10.02,4.57-18.64,6.03-25.87c1.46-7.23,2.37-13.03,2.72-17.4c1.18,0.13,2.25,0.24,3.23,0.32c0.98,0.08,1.8,0.12,2.46,0.12
			c0.72,0,1.59-0.04,2.6-0.12C1066.93,547.72,1068.03,547.62,1069.2,547.5z"/>
		<path class="st0" d="M1099.01,591.54c-6.67,0-11.9-1.7-15.71-5.11c-3.81-3.41-5.71-8.07-5.71-13.99c0-3.71,0.76-7.29,2.27-10.72
			c1.52-3.44,3.64-6.37,6.36-8.81c2.37-2.11,5.09-3.7,8.16-4.78s6.43-1.62,10.1-1.62c7.06,0,12.43,1.61,16.12,4.83
			c3.69,3.22,5.54,7.91,5.54,14.08c0,7.63-2.52,13.9-7.55,18.78C1113.56,589.09,1107.03,591.54,1099.01,591.54z M1104.14,550.78
			c-4.4,0-7.99,2.16-10.77,6.47c-2.78,4.31-4.18,9.9-4.18,16.77c0,4.35,0.88,7.65,2.64,9.89c1.76,2.24,4.37,3.36,7.81,3.36
			c4.54,0,8.22-2.12,11.03-6.36c2.82-4.24,4.23-9.79,4.23-16.64c0-4.44-0.91-7.79-2.72-10.07
			C1110.37,551.92,1107.69,550.78,1104.14,550.78z"/>
		<path class="st0" d="M1157.9,586.71c0.76-2.5,1.41-5.04,1.95-7.64c0.54-2.6,0.96-5.24,1.27-7.92c1.46,0.16,2.59,0.28,3.37,0.36
			c0.78,0.07,1.41,0.12,1.89,0.14c0.66,0,1.46-0.04,2.4-0.13c0.94-0.09,2.07-0.21,3.39-0.36c-0.93,2.84-1.73,5.78-2.41,8.82
			c-0.68,3.04-1.26,6.2-1.73,9.47c-3.11,0.74-5.97,1.29-8.57,1.64c-2.6,0.35-5.06,0.53-7.4,0.53c-7.28,0-12.87-1.68-16.77-5.04
			c-3.9-3.36-5.85-8.17-5.85-14.42c0-7.51,2.63-13.64,7.89-18.4c5.26-4.76,12.12-7.13,20.58-7.13c3.4,0,6.62,0.32,9.64,0.96
			c3.02,0.64,5.76,1.58,8.22,2.82c-0.64,1.57-1.3,3.14-1.98,4.71c-0.68,1.57-1.41,3.18-2.2,4.83l-0.96-0.28
			c-0.45-2.89-1.76-5.07-3.92-6.56c-2.16-1.48-5.09-2.23-8.8-2.23c-2.71,0-5.08,0.52-7.12,1.55c-2.04,1.03-3.74,2.58-5.11,4.64
			c-1.46,2.23-2.64,4.86-3.51,7.91c-0.88,3.04-1.32,5.97-1.32,8.77c0,4.35,1.07,7.75,3.2,10.18c2.13,2.44,5.1,3.65,8.9,3.65
			c0.87,0,1.69-0.07,2.48-0.2C1156.21,587.21,1157.04,587,1157.9,586.71z"/>
		<path class="st0" d="M1198.32,591.54c-6.67,0-11.9-1.7-15.71-5.11c-3.81-3.41-5.71-8.07-5.71-13.99c0-3.71,0.76-7.29,2.27-10.72
			c1.52-3.44,3.64-6.37,6.36-8.81c2.37-2.11,5.09-3.7,8.16-4.78s6.43-1.62,10.1-1.62c7.06,0,12.43,1.61,16.12,4.83
			c3.69,3.22,5.54,7.91,5.54,14.08c0,7.63-2.52,13.9-7.55,18.78C1212.88,589.09,1206.34,591.54,1198.32,591.54z M1203.46,550.78
			c-4.4,0-7.99,2.16-10.77,6.47s-4.18,9.9-4.18,16.77c0,4.35,0.88,7.65,2.64,9.89c1.76,2.24,4.37,3.36,7.81,3.36
			c4.54,0,8.22-2.12,11.03-6.36c2.82-4.24,4.23-9.79,4.23-16.64c0-4.44-0.91-7.79-2.72-10.07
			C1209.69,551.92,1207,550.78,1203.46,550.78z"/>
		<path class="st0" d="M1225.46,587.98c0.5-1.49,0.99-3.08,1.47-4.78c0.48-1.7,0.98-3.6,1.5-5.68l0.71,0.37
			c0.5,3.18,1.61,5.57,3.34,7.18c1.73,1.61,4.06,2.41,6.96,2.41c2.11,0,3.83-0.56,5.17-1.69c1.34-1.13,2.01-2.57,2.01-4.35
			c0-1.9-1.75-4.34-5.26-7.34c-0.33-0.27-0.57-0.46-0.71-0.59c-3.94-3.32-6.47-5.89-7.58-7.69c-1.11-1.81-1.67-3.76-1.67-5.86
			c0-3.86,1.38-7.04,4.13-9.55c2.76-2.51,6.32-3.76,10.69-3.76c2.35,0,4.61,0.25,6.78,0.76c2.17,0.51,4.24,1.27,6.22,2.27
			c-0.54,1.3-1.03,2.64-1.48,4.01c-0.45,1.37-0.89,2.82-1.3,4.35l-0.74-0.18c-0.54-2.27-1.56-4.02-3.08-5.25
			c-1.52-1.23-3.41-1.84-5.68-1.84c-1.98,0-3.55,0.51-4.72,1.52c-1.17,1.01-1.75,2.36-1.75,4.06c0,1.98,2.08,4.68,6.25,8.11
			c0.33,0.27,0.6,0.49,0.81,0.65c3.28,2.72,5.44,4.93,6.48,6.62c1.04,1.69,1.56,3.54,1.56,5.54c0,4.4-1.49,7.88-4.47,10.46
			c-2.98,2.58-7.05,3.87-12.21,3.87c-2.43,0-4.78-0.3-7.02-0.91C1229.62,590.07,1227.48,589.17,1225.46,587.98z"/>
	</g>
	<rect x="755.84" y="538.86" class="st0" width="504.47" height="2.59"/>
	<path class="st0" d="M760.2,528.88c-6.14-4.97-15.15-4.03-20.13,2.11c-4.98,6.14-4.03,15.15,2.11,20.13
		c6.15,4.97,15.15,4.03,20.13-2.11C767.28,542.87,766.34,533.85,760.2,528.88z"/>
</g>
</svg>
